<?xml version="1.0" encoding="UTF-8"?>
<!DOCTYPE svg PUBLIC "-//W3C//DTD SVG 1.1//EN" "http://www.w3.org/Graphics/SVG/1.1/DTD/svg11.dtd">
<svg xmlns="http://www.w3.org/2000/svg" version="1.1" width="512px" height="512px" style="shape-rendering:geometricPrecision; text-rendering:geometricPrecision; image-rendering:optimizeQuality; fill-rule:evenodd; clip-rule:evenodd" xmlns:xlink="http://www.w3.org/1999/xlink">
<g><path style="opacity:0.119" fill="#040404" d="M 445.5,267.5 C 443.834,265.813 442.5,263.813 441.5,261.5C 452.376,249.618 455.543,235.951 451,220.5C 443.58,195.086 427.747,177.253 403.5,167C 392.966,163.7 382.3,161.033 371.5,159C 373.526,134.527 375.86,110.027 378.5,85.5C 378.482,74.2725 374.149,65.1058 365.5,58C 332.166,37.4422 296.166,23.7755 257.5,17C 234.103,14.2289 211.103,16.2289 188.5,23C 160.555,31.1415 134.222,42.8082 109.5,58C 103.466,63.5644 99.6329,70.3978 98,78.5C 97.432,87.3831 97.932,96.2165 99.5,105C 99.3917,106.681 98.7251,107.848 97.5,108.5C 96.2088,100.548 95.2088,92.5476 94.5,84.5C 94.4903,72.6863 99.1569,63.1863 108.5,56C 147.463,30.4569 190.297,16.2902 237,13.5C 266.766,14.4215 295.266,20.9215 322.5,33C 337.271,39.5518 351.604,46.8852 365.5,55C 374.708,61.047 380.042,69.547 381.5,80.5C 379.216,106.474 377.216,132.474 375.5,158.5C 421.775,162.613 449.108,187.446 457.5,233C 455.758,245.398 451.758,256.898 445.5,267.5 Z"/></g>
<g><path style="opacity:0.997" fill="#fdfdfe" d="M 445.5,267.5 C 454.32,282.966 458.653,299.633 458.5,317.5C 455.499,339.506 446.999,359.172 433,376.5C 414.019,393.235 391.852,403.401 366.5,407C 359.571,408.489 352.571,409.322 345.5,409.5C 344.771,414.293 342.937,418.626 340,422.5C 318.271,445.237 293.438,463.737 265.5,478C 243.407,487.159 221.741,486.159 200.5,475C 190.984,469.744 181.984,463.744 173.5,457C 156.698,441.866 140.198,426.366 124,410.5C 120.469,406.603 117.303,402.436 114.5,398C 102.156,398.778 90.4896,396.444 79.5,391C 75.9636,387.799 72.7969,384.299 70,380.5C 64.7133,369.791 60.5466,358.791 57.5,347.5C 59.1721,331.164 64.5055,316.164 73.5,302.5C 75.4788,301.188 77.1455,299.521 78.5,297.5C 68.9561,285.743 62.6227,272.41 59.5,257.5C 58.3291,252.168 58.4958,246.835 60,241.5C 62.6849,233.273 65.8515,225.273 69.5,217.5C 71.1417,214.898 72.8084,212.231 74.5,209.5C 70.8411,206.673 67.6744,203.34 65,199.5C 59.1857,188.206 54.6857,176.539 51.5,164.5C 52.9088,149.015 57.7421,134.682 66,121.5C 74.2991,112.007 84.7991,107.674 97.5,108.5C 98.7251,107.848 99.3917,106.681 99.5,105C 97.932,96.2165 97.432,87.3831 98,78.5C 99.6329,70.3978 103.466,63.5644 109.5,58C 134.222,42.8082 160.555,31.1415 188.5,23C 211.103,16.2289 234.103,14.2289 257.5,17C 296.166,23.7755 332.166,37.4422 365.5,58C 374.149,65.1058 378.482,74.2725 378.5,85.5C 375.86,110.027 373.526,134.527 371.5,159C 382.3,161.033 392.966,163.7 403.5,167C 427.747,177.253 443.58,195.086 451,220.5C 455.543,235.951 452.376,249.618 441.5,261.5C 442.5,263.813 443.834,265.813 445.5,267.5 Z"/></g>
<g><path style="opacity:1" fill="#2296f3" d="M 223.5,46.5 C 254.143,45.5953 283.477,51.4287 311.5,64C 323.112,69.1394 334.446,74.8061 345.5,81C 347.124,82.1171 348.124,83.6171 348.5,85.5C 345.242,109.412 342.909,133.412 341.5,157.5C 318.96,155.64 296.96,158.14 275.5,165C 237.315,182.869 222.815,212.369 232,253.5C 233.746,257.327 235.746,260.993 238,264.5C 242.723,268.72 246.89,273.387 250.5,278.5C 235.596,284.925 226.762,296.258 224,312.5C 220.247,344.492 232.081,368.659 259.5,385C 277.668,393.892 296.668,399.892 316.5,403C 297.822,421.833 276.822,437.5 253.5,450C 241.81,454.581 230.143,454.581 218.5,450C 207.812,444.326 197.812,437.659 188.5,430C 173.713,416.513 159.213,402.679 145,388.5C 136.029,378.175 132.529,366.175 134.5,352.5C 129.456,352.173 124.456,352.506 119.5,353.5C 118.665,357.838 117.332,362.005 115.5,366C 109.5,366.667 103.5,366.667 97.5,366C 93.0395,359.126 90.0395,351.626 88.5,343.5C 90.2729,335.791 93.2729,328.625 97.5,322C 103.5,321.333 109.5,321.333 115.5,322C 117.369,325.972 118.703,330.138 119.5,334.5C 124.12,335.493 128.786,335.827 133.5,335.5C 133.556,310.149 134.223,284.816 135.5,259.5C 130.456,259.173 125.456,259.506 120.5,260.5C 119.605,263.808 118.771,267.141 118,270.5C 117.535,271.931 116.701,273.097 115.5,274C 109.584,274.807 103.75,274.641 98,273.5C 94.175,266.356 91.3416,258.856 89.5,251C 90.9592,242.753 94.2926,235.419 99.5,229C 104.833,228.333 110.167,228.333 115.5,229C 116.701,229.903 117.535,231.069 118,232.5C 118.737,236.207 119.571,239.873 120.5,243.5C 125.762,243.805 130.928,243.471 136,242.5C 136.54,218.495 136.373,194.495 135.5,170.5C 128.137,170.169 120.803,170.503 113.5,171.5C 112.085,175.666 110.752,179.833 109.5,184C 103.5,184.667 97.5,184.667 91.5,184C 87.2475,176.659 84.2475,168.826 82.5,160.5C 84.1043,152.462 87.4376,145.295 92.5,139C 98.1667,138.333 103.833,138.333 109.5,139C 111.528,143.274 112.861,147.774 113.5,152.5C 120.167,152.5 126.833,152.5 133.5,152.5C 132.895,130.202 130.895,108.035 127.5,86C 127.625,84.3732 128.125,82.8732 129,81.5C 158.458,63.9626 189.958,52.2959 223.5,46.5 Z"/></g>
<g><path style="opacity:0.132" fill="#020202" d="M 51.5,164.5 C 54.6857,176.539 59.1857,188.206 65,199.5C 67.6744,203.34 70.8411,206.673 74.5,209.5C 72.8084,212.231 71.1417,214.898 69.5,217.5C 57.5426,201.905 51.5426,184.239 51.5,164.5 Z"/></g>
<g><path style="opacity:1" fill="#2396f3" d="M 316.5,183.5 C 330.504,183.333 344.504,183.5 358.5,184C 394.692,184.378 417.692,201.878 427.5,236.5C 426.573,243.601 422.573,248.101 415.5,250C 400.028,255.482 385.028,254.482 370.5,247C 368.04,245.542 365.873,243.709 364,241.5C 361.437,232.183 355.603,226.016 346.5,223C 337.01,220.27 328.01,221.27 319.5,226C 312.556,233.42 312.889,240.42 320.5,247C 325.933,249.442 331.6,251.108 337.5,252C 357.979,253.635 377.979,257.635 397.5,264C 423.356,275.871 435.189,296.038 433,324.5C 426.34,354.491 407.84,372.324 377.5,378C 351.844,382.591 326.177,382.591 300.5,378C 266.9,370.42 249.4,349.587 248,315.5C 252.488,305.996 259.988,300.496 270.5,299C 295.829,296.413 312.329,307.247 320,331.5C 329.241,340.939 340.408,344.106 353.5,341C 366.068,339.115 371.901,331.948 371,319.5C 369.75,316.829 367.917,314.663 365.5,313C 349.606,307.353 333.272,303.353 316.5,301C 301.752,298.753 288.085,293.753 275.5,286C 251.929,263.873 248.096,238.706 264,210.5C 272.613,199.931 283.447,192.431 296.5,188C 303.259,186.285 309.925,184.785 316.5,183.5 Z"/></g>
<g><path style="opacity:0.132" fill="#040404" d="M 59.5,257.5 C 62.6227,272.41 68.9561,285.743 78.5,297.5C 77.1455,299.521 75.4788,301.188 73.5,302.5C 64.5929,291.638 59.2596,279.138 57.5,265C 57.4078,262.179 58.0744,259.679 59.5,257.5 Z"/></g>
<g><path style="opacity:0.139" fill="#020202" d="M 458.5,317.5 C 459.557,364.613 437.557,395.113 392.5,409C 377.621,414.476 362.288,417.976 346.5,419.5C 344.721,425.725 341.888,431.391 338,436.5C 317.353,456.815 294.186,473.649 268.5,487C 245.168,497.561 222.168,496.894 199.5,485C 175.68,470.529 154.18,453.029 135,432.5C 127.833,424.667 120.667,416.833 113.5,409C 101.227,408.79 89.5607,406.124 78.5,401C 64.354,386.077 57.354,368.244 57.5,347.5C 60.5466,358.791 64.7133,369.791 70,380.5C 72.7969,384.299 75.9636,387.799 79.5,391C 90.4896,396.444 102.156,398.778 114.5,398C 117.303,402.436 120.469,406.603 124,410.5C 140.198,426.366 156.698,441.866 173.5,457C 181.984,463.744 190.984,469.744 200.5,475C 221.741,486.159 243.407,487.159 265.5,478C 293.438,463.737 318.271,445.237 340,422.5C 342.937,418.626 344.771,414.293 345.5,409.5C 352.571,409.322 359.571,408.489 366.5,407C 391.852,403.401 414.019,393.235 433,376.5C 446.999,359.172 455.499,339.506 458.5,317.5 Z"/></g>
</svg>
